<svg aria-roledescription="er" role="graphics-document document" style="overflow: hidden; max-width: 100%;" xmlns="http://www.w3.org/2000/svg" width="899px" id="graph-div" height="636px" xmlns:xlink="http://www.w3.org/1999/xlink" xmlns:ev="http://www.w3.org/2001/xml-events"><defs><marker orient="auto" markerHeight="240" markerWidth="190" refY="7" refX="0" id="MD_PARENT_START"><path d="M 18,7 L9,13 L1,7 L9,1 Z"></path></marker><style id="svg-pan-zoom-controls-styles" type="text/css">.svg-pan-zoom-control { cursor: pointer; fill: black; fill-opacity: 0.333; } .svg-pan-zoom-control:hover { fill-opacity: 0.8; } .svg-pan-zoom-control-background { fill: white; fill-opacity: 0.5; } .svg-pan-zoom-control-background { fill-opacity: 0.8; }</style></defs><defs><marker orient="auto" markerHeight="28" markerWidth="20" refY="7" refX="19" id="MD_PARENT_END"><path d="M 18,7 L9,13 L1,7 L9,1 Z"></path></marker></defs><defs><marker orient="auto" markerHeight="18" markerWidth="18" refY="9" refX="0" id="ONLY_ONE_START"><path d="M9,0 L9,18 M15,0 L15,18" fill="none" stroke="gray"></path></marker></defs><defs><marker orient="auto" markerHeight="18" markerWidth="18" refY="9" refX="18" id="ONLY_ONE_END"><path d="M3,0 L3,18 M9,0 L9,18" fill="none" stroke="gray"></path></marker></defs><defs><marker orient="auto" markerHeight="18" markerWidth="30" refY="9" refX="0" id="ZERO_OR_ONE_START"><circle r="6" cy="9" cx="21" fill="white" stroke="gray"></circle><path d="M9,0 L9,18" fill="none" stroke="gray"></path></marker></defs><defs><marker orient="auto" markerHeight="18" markerWidth="30" refY="9" refX="30" id="ZERO_OR_ONE_END"><circle r="6" cy="9" cx="9" fill="white" stroke="gray"></circle><path d="M21,0 L21,18" fill="none" stroke="gray"></path></marker></defs><defs><marker orient="auto" markerHeight="36" markerWidth="45" refY="18" refX="18" id="ONE_OR_MORE_START"><path d="M0,18 Q 18,0 36,18 Q 18,36 0,18 M42,9 L42,27" fill="none" stroke="gray"></path></marker></defs><defs><marker orient="auto" markerHeight="36" markerWidth="45" refY="18" refX="27" id="ONE_OR_MORE_END"><path d="M3,9 L3,27 M9,18 Q27,0 45,18 Q27,36 9,18" fill="none" stroke="gray"></path></marker></defs><defs><marker orient="auto" markerHeight="36" markerWidth="57" refY="18" refX="18" id="ZERO_OR_MORE_START"><circle r="6" cy="18" cx="48" fill="white" stroke="gray"></circle><path d="M0,18 Q18,0 36,18 Q18,36 0,18" fill="none" stroke="gray"></path></marker></defs><defs><marker orient="auto" markerHeight="36" markerWidth="57" refY="18" refX="39" id="ZERO_OR_MORE_END"><circle r="6" cy="18" cx="9" fill="white" stroke="gray"></circle><path d="M21,18 Q39,0 57,18 Q39,36 21,18" fill="none" stroke="gray"></path></marker></defs><g id="viewport-20260224075805160" class="svg-pan-zoom_viewport" transform="matrix(0.7361111044883728,0,0,0.7361111044883728,204.91482543945312,0.00000286102294921875)" style="transform: matrix(0.736111, 0, 0, 0.736111, 204.915, 0.00000286102);"><style>#graph-div{font-family:"trebuchet ms",verdana,arial,sans-serif;font-size:16px;fill:#333;}#graph-div .error-icon{fill:#552222;}#graph-div .error-text{fill:#552222;stroke:#552222;}#graph-div .edge-thickness-normal{stroke-width:2px;}#graph-div .edge-thickness-thick{stroke-width:3.5px;}#graph-div .edge-pattern-solid{stroke-dasharray:0;}#graph-div .edge-pattern-dashed{stroke-dasharray:3;}#graph-div .edge-pattern-dotted{stroke-dasharray:2;}#graph-div .marker{fill:#333333;stroke:#333333;}#graph-div .marker.cross{stroke:#333333;}#graph-div svg{font-family:"trebuchet ms",verdana,arial,sans-serif;font-size:16px;}#graph-div .entityBox{fill:#ECECFF;stroke:#9370DB;}#graph-div .attributeBoxOdd{fill:#ffffff;stroke:#9370DB;}#graph-div .attributeBoxEven{fill:#f2f2f2;stroke:#9370DB;}#graph-div .relationshipLabelBox{fill:hsl(80, 100%, 96.2745098039%);opacity:0.7;background-color:hsl(80, 100%, 96.2745098039%);}#graph-div .relationshipLabelBox rect{opacity:0.5;}#graph-div .relationshipLine{stroke:#333333;}#graph-div .entityTitleText{text-anchor:middle;font-size:18px;fill:#333;}#graph-div #MD_PARENT_START{fill:#f5f5f5!important;stroke:#333333!important;stroke-width:1;}#graph-div #MD_PARENT_END{fill:#f5f5f5!important;stroke:#333333!important;stroke-width:1;}#graph-div :root{--mermaid-font-family:"trebuchet ms",verdana,arial,sans-serif;}</style><g></g><path marker-start="url(#ONLY_ONE_START)" marker-end="url(#ZERO_OR_MORE_END)" style="stroke: gray; fill: none;" d="M84.583,251L84.583,259.333C84.583,267.667,84.583,284.333,117.461,310.695C150.339,337.058,216.094,373.115,248.972,391.144L281.85,409.173" class="er relationshipLine"></path><path marker-start="url(#ONLY_ONE_START)" marker-end="url(#ZERO_OR_MORE_END)" style="stroke: gray; fill: none;" d="M344.45,205L344.45,221C344.45,237,344.45,269,344.45,293.333C344.45,317.667,344.45,334.333,344.45,342.667L344.45,351" class="er relationshipLine"></path><path marker-start="url(#ONLY_ONE_START)" marker-end="url(#ZERO_OR_MORE_END)" style="stroke: gray; fill: none;" d="M592.133,170.5L592.133,192.25C592.133,214,592.133,257.5,561.286,296.997C530.439,336.495,468.744,371.99,437.897,389.737L407.05,407.484" class="er relationshipLine"></path><path marker-start="url(#ONLY_ONE_START)" marker-end="url(#ZERO_OR_MORE_END)" style="stroke: gray; fill: none;" d="M344.45,536L344.45,544.333C344.45,552.667,344.45,569.333,350.761,586.202C357.072,603.07,369.694,620.14,376.006,628.674L382.317,637.209" class="er relationshipLine"></path><path marker-start="url(#ONLY_ONE_START)" marker-end="url(#ZERO_OR_MORE_END)" style="stroke: gray; fill: none;" d="M572.2,513L572.2,525.167C572.2,537.333,572.2,561.667,565.889,582.368C559.578,603.07,546.956,620.14,540.644,628.674L534.333,637.209" class="er relationshipLine"></path><g transform="translate(539.7333374023438,100.5 )" id="entity-Positions-7366d0c5-906e-5f0b-813c-391faeb9e739"><rect height="70" width="104.79999923706055" y="0" x="0" class="er entityBox"></rect><text transform="translate(52.39999961853027,12)" style="dominant-baseline: middle; text-anchor: middle; font-size: 12px;" y="0" x="0" id="text-entity-Positions-7366d0c5-906e-5f0b-813c-391faeb9e739" class="er entityLabel">Positions</text><rect height="23" width="26.433332443237305" y="24" x="0" class="er attributeBoxOdd"></rect><text transform="translate(5,35.5)" style="dominant-baseline: middle; font-size: 10.2px;" y="0" x="0" id="text-entity-Positions-7366d0c5-906e-5f0b-813c-391faeb9e739-attr-1-type" class="er entityLabel">int</text><rect height="23" width="54.766666412353516" y="24" x="26.433332443237305" class="er attributeBoxOdd"></rect><text transform="translate(31.433332443237305,35.5)" style="dominant-baseline: middle; font-size: 10.2px;" y="0" x="0" id="text-entity-Positions-7366d0c5-906e-5f0b-813c-391faeb9e739-attr-1-name" class="er entityLabel">PositionId</text><rect height="23" width="23.600000381469727" y="24" x="81.19999885559082" class="er attributeBoxOdd"></rect><text transform="translate(86.19999885559082,35.5)" style="dominant-baseline: middle; font-size: 10.2px;" y="0" x="0" id="text-entity-Positions-7366d0c5-906e-5f0b-813c-391faeb9e739-attr-1-key" class="er entityLabel">PK</text><rect height="23" width="26.433332443237305" y="47" x="0" class="er attributeBoxEven"></rect><text transform="translate(5,58.5)" style="dominant-baseline: middle; font-size: 10.2px;" y="0" x="0" id="text-entity-Positions-7366d0c5-906e-5f0b-813c-391faeb9e739-attr-2-type" class="er entityLabel">text</text><rect height="23" width="54.766666412353516" y="47" x="26.433332443237305" class="er attributeBoxEven"></rect><text transform="translate(31.433332443237305,58.5)" style="dominant-baseline: middle; font-size: 10.2px;" y="0" x="0" id="text-entity-Positions-7366d0c5-906e-5f0b-813c-391faeb9e739-attr-2-name" class="er entityLabel">Name</text><rect height="23" width="23.600000381469727" y="47" x="81.19999885559082" class="er attributeBoxEven"></rect><text transform="translate(86.19999885559082,58.5)" style="dominant-baseline: middle; font-size: 10.2px;" y="0" x="0" id="text-entity-Positions-7366d0c5-906e-5f0b-813c-391faeb9e739-attr-2-key" class="er entityLabel"></text></g><g transform="translate(20,20 )" id="entity-Employees-f868b128-1dff-5292-af42-bdaa1887762c"><rect height="231" width="129.16666412353516" y="0" x="0" class="er entityBox"></rect><text transform="translate(64.58333206176758,12)" style="dominant-baseline: middle; text-anchor: middle; font-size: 12px;" y="0" x="0" id="text-entity-Employees-f868b128-1dff-5292-af42-bdaa1887762c" class="er entityLabel">Employees</text><rect height="23" width="29.83333396911621" y="24" x="0" class="er attributeBoxOdd"></rect><text transform="translate(5,35.5)" style="dominant-baseline: middle; font-size: 10.2px;" y="0" x="0" id="text-entity-Employees-f868b128-1dff-5292-af42-bdaa1887762c-attr-1-type" class="er entityLabel">int</text><rect height="23" width="75.73332977294922" y="24" x="29.83333396911621" class="er attributeBoxOdd"></rect><text transform="translate(34.83333396911621,35.5)" style="dominant-baseline: middle; font-size: 10.2px;" y="0" x="0" id="text-entity-Employees-f868b128-1dff-5292-af42-bdaa1887762c-attr-1-name" class="er entityLabel">EmployeeId</text><rect height="23" width="23.600000381469727" y="24" x="105.56666374206543" class="er attributeBoxOdd"></rect><text transform="translate(110.56666374206543,35.5)" style="dominant-baseline: middle; font-size: 10.2px;" y="0" x="0" id="text-entity-Employees-f868b128-1dff-5292-af42-bdaa1887762c-attr-1-key" class="er entityLabel">PK</text><rect height="23" width="29.83333396911621" y="47" x="0" class="er attributeBoxEven"></rect><text transform="translate(5,58.5)" style="dominant-baseline: middle; font-size: 10.2px;" y="0" x="0" id="text-entity-Employees-f868b128-1dff-5292-af42-bdaa1887762c-attr-2-type" class="er entityLabel">text</text><rect height="23" width="75.73332977294922" y="47" x="29.83333396911621" class="er attributeBoxEven"></rect><text transform="translate(34.83333396911621,58.5)" style="dominant-baseline: middle; font-size: 10.2px;" y="0" x="0" id="text-entity-Employees-f868b128-1dff-5292-af42-bdaa1887762c-attr-2-name" class="er entityLabel">FullName</text><rect height="23" width="23.600000381469727" y="47" x="105.56666374206543" class="er attributeBoxEven"></rect><text transform="translate(110.56666374206543,58.5)" style="dominant-baseline: middle; font-size: 10.2px;" y="0" x="0" id="text-entity-Employees-f868b128-1dff-5292-af42-bdaa1887762c-attr-2-key" class="er entityLabel"></text><rect height="23" width="29.83333396911621" y="70" x="0" class="er attributeBoxOdd"></rect><text transform="translate(5,81.5)" style="dominant-baseline: middle; font-size: 10.2px;" y="0" x="0" id="text-entity-Employees-f868b128-1dff-5292-af42-bdaa1887762c-attr-3-type" class="er entityLabel">text</text><rect height="23" width="75.73332977294922" y="70" x="29.83333396911621" class="er attributeBoxOdd"></rect><text transform="translate(34.83333396911621,81.5)" style="dominant-baseline: middle; font-size: 10.2px;" y="0" x="0" id="text-entity-Employees-f868b128-1dff-5292-af42-bdaa1887762c-attr-3-name" class="er entityLabel">Address</text><rect height="23" width="23.600000381469727" y="70" x="105.56666374206543" class="er attributeBoxOdd"></rect><text transform="translate(110.56666374206543,81.5)" style="dominant-baseline: middle; font-size: 10.2px;" y="0" x="0" id="text-entity-Employees-f868b128-1dff-5292-af42-bdaa1887762c-attr-3-key" class="er entityLabel"></text><rect height="23" width="29.83333396911621" y="93" x="0" class="er attributeBoxEven"></rect><text transform="translate(5,104.5)" style="dominant-baseline: middle; font-size: 10.2px;" y="0" x="0" id="text-entity-Employees-f868b128-1dff-5292-af42-bdaa1887762c-attr-4-type" class="er entityLabel">date</text><rect height="23" width="75.73332977294922" y="93" x="29.83333396911621" class="er attributeBoxEven"></rect><text transform="translate(34.83333396911621,104.5)" style="dominant-baseline: middle; font-size: 10.2px;" y="0" x="0" id="text-entity-Employees-f868b128-1dff-5292-af42-bdaa1887762c-attr-4-name" class="er entityLabel">BirthDate</text><rect height="23" width="23.600000381469727" y="93" x="105.56666374206543" class="er attributeBoxEven"></rect><text transform="translate(110.56666374206543,104.5)" style="dominant-baseline: middle; font-size: 10.2px;" y="0" x="0" id="text-entity-Employees-f868b128-1dff-5292-af42-bdaa1887762c-attr-4-key" class="er entityLabel"></text><rect height="23" width="29.83333396911621" y="116" x="0" class="er attributeBoxOdd"></rect><text transform="translate(5,127.5)" style="dominant-baseline: middle; font-size: 10.2px;" y="0" x="0" id="text-entity-Employees-f868b128-1dff-5292-af42-bdaa1887762c-attr-5-type" class="er entityLabel">text</text><rect height="23" width="75.73332977294922" y="116" x="29.83333396911621" class="er attributeBoxOdd"></rect><text transform="translate(34.83333396911621,127.5)" style="dominant-baseline: middle; font-size: 10.2px;" y="0" x="0" id="text-entity-Employees-f868b128-1dff-5292-af42-bdaa1887762c-attr-5-name" class="er entityLabel">Degree</text><rect height="23" width="23.600000381469727" y="116" x="105.56666374206543" class="er attributeBoxOdd"></rect><text transform="translate(110.56666374206543,127.5)" style="dominant-baseline: middle; font-size: 10.2px;" y="0" x="0" id="text-entity-Employees-f868b128-1dff-5292-af42-bdaa1887762c-attr-5-key" class="er entityLabel"></text><rect height="23" width="29.83333396911621" y="139" x="0" class="er attributeBoxEven"></rect><text transform="translate(5,150.5)" style="dominant-baseline: middle; font-size: 10.2px;" y="0" x="0" id="text-entity-Employees-f868b128-1dff-5292-af42-bdaa1887762c-attr-6-type" class="er entityLabel">date</text><rect height="23" width="75.73332977294922" y="139" x="29.83333396911621" class="er attributeBoxEven"></rect><text transform="translate(34.83333396911621,150.5)" style="dominant-baseline: middle; font-size: 10.2px;" y="0" x="0" id="text-entity-Employees-f868b128-1dff-5292-af42-bdaa1887762c-attr-6-name" class="er entityLabel">HireDate</text><rect height="23" width="23.600000381469727" y="139" x="105.56666374206543" class="er attributeBoxEven"></rect><text transform="translate(110.56666374206543,150.5)" style="dominant-baseline: middle; font-size: 10.2px;" y="0" x="0" id="text-entity-Employees-f868b128-1dff-5292-af42-bdaa1887762c-attr-6-key" class="er entityLabel"></text><rect height="23" width="29.83333396911621" y="162" x="0" class="er attributeBoxOdd"></rect><text transform="translate(5,173.5)" style="dominant-baseline: middle; font-size: 10.2px;" y="0" x="0" id="text-entity-Employees-f868b128-1dff-5292-af42-bdaa1887762c-attr-7-type" class="er entityLabel">date</text><rect height="23" width="75.73332977294922" y="162" x="29.83333396911621" class="er attributeBoxOdd"></rect><text transform="translate(34.83333396911621,173.5)" style="dominant-baseline: middle; font-size: 10.2px;" y="0" x="0" id="text-entity-Employees-f868b128-1dff-5292-af42-bdaa1887762c-attr-7-name" class="er entityLabel">LeaveDate</text><rect height="23" width="23.600000381469727" y="162" x="105.56666374206543" class="er attributeBoxOdd"></rect><text transform="translate(110.56666374206543,173.5)" style="dominant-baseline: middle; font-size: 10.2px;" y="0" x="0" id="text-entity-Employees-f868b128-1dff-5292-af42-bdaa1887762c-attr-7-key" class="er entityLabel"></text><rect height="23" width="29.83333396911621" y="185" x="0" class="er attributeBoxEven"></rect><text transform="translate(5,196.5)" style="dominant-baseline: middle; font-size: 10.2px;" y="0" x="0" id="text-entity-Employees-f868b128-1dff-5292-af42-bdaa1887762c-attr-8-type" class="er entityLabel">text</text><rect height="23" width="75.73332977294922" y="185" x="29.83333396911621" class="er attributeBoxEven"></rect><text transform="translate(34.83333396911621,196.5)" style="dominant-baseline: middle; font-size: 10.2px;" y="0" x="0" id="text-entity-Employees-f868b128-1dff-5292-af42-bdaa1887762c-attr-8-name" class="er entityLabel">Email</text><rect height="23" width="23.600000381469727" y="185" x="105.56666374206543" class="er attributeBoxEven"></rect><text transform="translate(110.56666374206543,196.5)" style="dominant-baseline: middle; font-size: 10.2px;" y="0" x="0" id="text-entity-Employees-f868b128-1dff-5292-af42-bdaa1887762c-attr-8-key" class="er entityLabel"></text><rect height="23" width="29.83333396911621" y="208" x="0" class="er attributeBoxOdd"></rect><text transform="translate(5,219.5)" style="dominant-baseline: middle; font-size: 10.2px;" y="0" x="0" id="text-entity-Employees-f868b128-1dff-5292-af42-bdaa1887762c-attr-9-type" class="er entityLabel">text</text><rect height="23" width="75.73332977294922" y="208" x="29.83333396911621" class="er attributeBoxOdd"></rect><text transform="translate(34.83333396911621,219.5)" style="dominant-baseline: middle; font-size: 10.2px;" y="0" x="0" id="text-entity-Employees-f868b128-1dff-5292-af42-bdaa1887762c-attr-9-name" class="er entityLabel">PhoneNumber</text><rect height="23" width="23.600000381469727" y="208" x="105.56666374206543" class="er attributeBoxOdd"></rect><text transform="translate(110.56666374206543,219.5)" style="dominant-baseline: middle; font-size: 10.2px;" y="0" x="0" id="text-entity-Employees-f868b128-1dff-5292-af42-bdaa1887762c-attr-9-key" class="er entityLabel"></text></g><g transform="translate(249.1666717529297,66 )" id="entity-Projects-ef340a3a-1f85-5eac-99f2-5672052ce61e"><rect height="139" width="190.56667137145996" y="0" x="0" class="er entityBox"></rect><text transform="translate(95.28333568572998,12)" style="dominant-baseline: middle; text-anchor: middle; font-size: 12px;" y="0" x="0" id="text-entity-Projects-ef340a3a-1f85-5eac-99f2-5672052ce61e" class="er entityLabel">Projects</text><rect height="23" width="96.33333587646484" y="24" x="0" class="er attributeBoxOdd"></rect><text transform="translate(5,35.5)" style="dominant-baseline: middle; font-size: 10.2px;" y="0" x="0" id="text-entity-Projects-ef340a3a-1f85-5eac-99f2-5672052ce61e-attr-1-type" class="er entityLabel">int</text><rect height="23" width="70.63333511352539" y="24" x="96.33333587646484" class="er attributeBoxOdd"></rect><text transform="translate(101.33333587646484,35.5)" style="dominant-baseline: middle; font-size: 10.2px;" y="0" x="0" id="text-entity-Projects-ef340a3a-1f85-5eac-99f2-5672052ce61e-attr-1-name" class="er entityLabel">ProjectId</text><rect height="23" width="23.600000381469727" y="24" x="166.96667098999023" class="er attributeBoxOdd"></rect><text transform="translate(171.96667098999023,35.5)" style="dominant-baseline: middle; font-size: 10.2px;" y="0" x="0" id="text-entity-Projects-ef340a3a-1f85-5eac-99f2-5672052ce61e-attr-1-key" class="er entityLabel">PK</text><rect height="23" width="96.33333587646484" y="47" x="0" class="er attributeBoxEven"></rect><text transform="translate(5,58.5)" style="dominant-baseline: middle; font-size: 10.2px;" y="0" x="0" id="text-entity-Projects-ef340a3a-1f85-5eac-99f2-5672052ce61e-attr-2-type" class="er entityLabel">text</text><rect height="23" width="70.63333511352539" y="47" x="96.33333587646484" class="er attributeBoxEven"></rect><text transform="translate(101.33333587646484,58.5)" style="dominant-baseline: middle; font-size: 10.2px;" y="0" x="0" id="text-entity-Projects-ef340a3a-1f85-5eac-99f2-5672052ce61e-attr-2-name" class="er entityLabel">ProjectName</text><rect height="23" width="23.600000381469727" y="47" x="166.96667098999023" class="er attributeBoxEven"></rect><text transform="translate(171.96667098999023,58.5)" style="dominant-baseline: middle; font-size: 10.2px;" y="0" x="0" id="text-entity-Projects-ef340a3a-1f85-5eac-99f2-5672052ce61e-attr-2-key" class="er entityLabel"></text><rect height="23" width="96.33333587646484" y="70" x="0" class="er attributeBoxOdd"></rect><text transform="translate(5,81.5)" style="dominant-baseline: middle; font-size: 10.2px;" y="0" x="0" id="text-entity-Projects-ef340a3a-1f85-5eac-99f2-5672052ce61e-attr-3-type" class="er entityLabel">date</text><rect height="23" width="70.63333511352539" y="70" x="96.33333587646484" class="er attributeBoxOdd"></rect><text transform="translate(101.33333587646484,81.5)" style="dominant-baseline: middle; font-size: 10.2px;" y="0" x="0" id="text-entity-Projects-ef340a3a-1f85-5eac-99f2-5672052ce61e-attr-3-name" class="er entityLabel">StartDate</text><rect height="23" width="23.600000381469727" y="70" x="166.96667098999023" class="er attributeBoxOdd"></rect><text transform="translate(171.96667098999023,81.5)" style="dominant-baseline: middle; font-size: 10.2px;" y="0" x="0" id="text-entity-Projects-ef340a3a-1f85-5eac-99f2-5672052ce61e-attr-3-key" class="er entityLabel"></text><rect height="23" width="96.33333587646484" y="93" x="0" class="er attributeBoxEven"></rect><text transform="translate(5,104.5)" style="dominant-baseline: middle; font-size: 10.2px;" y="0" x="0" id="text-entity-Projects-ef340a3a-1f85-5eac-99f2-5672052ce61e-attr-4-type" class="er entityLabel">date</text><rect height="23" width="70.63333511352539" y="93" x="96.33333587646484" class="er attributeBoxEven"></rect><text transform="translate(101.33333587646484,104.5)" style="dominant-baseline: middle; font-size: 10.2px;" y="0" x="0" id="text-entity-Projects-ef340a3a-1f85-5eac-99f2-5672052ce61e-attr-4-name" class="er entityLabel">EndDate</text><rect height="23" width="23.600000381469727" y="93" x="166.96667098999023" class="er attributeBoxEven"></rect><text transform="translate(171.96667098999023,104.5)" style="dominant-baseline: middle; font-size: 10.2px;" y="0" x="0" id="text-entity-Projects-ef340a3a-1f85-5eac-99f2-5672052ce61e-attr-4-key" class="er entityLabel"></text><rect height="23" width="96.33333587646484" y="116" x="0" class="er attributeBoxOdd"></rect><text transform="translate(5,127.5)" style="dominant-baseline: middle; font-size: 10.2px;" y="0" x="0" id="text-entity-Projects-ef340a3a-1f85-5eac-99f2-5672052ce61e-attr-5-type" class="er entityLabel">PROJECTSTATUS</text><rect height="23" width="70.63333511352539" y="116" x="96.33333587646484" class="er attributeBoxOdd"></rect><text transform="translate(101.33333587646484,127.5)" style="dominant-baseline: middle; font-size: 10.2px;" y="0" x="0" id="text-entity-Projects-ef340a3a-1f85-5eac-99f2-5672052ce61e-attr-5-name" class="er entityLabel">ProjectStatus</text><rect height="23" width="23.600000381469727" y="116" x="166.96667098999023" class="er attributeBoxOdd"></rect><text transform="translate(171.96667098999023,127.5)" style="dominant-baseline: middle; font-size: 10.2px;" y="0" x="0" id="text-entity-Projects-ef340a3a-1f85-5eac-99f2-5672052ce61e-attr-5-key" class="er entityLabel"></text></g><g transform="translate(281.8500061035156,351 )" id="entity-Assignments-d5176198-717b-5ac6-9e99-fb1e6f272b77"><rect height="185" width="125.20000076293945" y="0" x="0" class="er entityBox"></rect><text transform="translate(62.60000038146973,12)" style="dominant-baseline: middle; text-anchor: middle; font-size: 12px;" y="0" x="0" id="text-entity-Assignments-d5176198-717b-5ac6-9e99-fb1e6f272b77" class="er entityLabel">Assignments</text><rect height="23" width="29.83333396911621" y="24" x="0" class="er attributeBoxOdd"></rect><text transform="translate(5,35.5)" style="dominant-baseline: middle; font-size: 10.2px;" y="0" x="0" id="text-entity-Assignments-d5176198-717b-5ac6-9e99-fb1e6f272b77-attr-1-type" class="er entityLabel">int</text><rect height="23" width="71.76666641235352" y="24" x="29.83333396911621" class="er attributeBoxOdd"></rect><text transform="translate(34.83333396911621,35.5)" style="dominant-baseline: middle; font-size: 10.2px;" y="0" x="0" id="text-entity-Assignments-d5176198-717b-5ac6-9e99-fb1e6f272b77-attr-1-name" class="er entityLabel">AssignmentId</text><rect height="23" width="23.600000381469727" y="24" x="101.60000038146973" class="er attributeBoxOdd"></rect><text transform="translate(106.60000038146973,35.5)" style="dominant-baseline: middle; font-size: 10.2px;" y="0" x="0" id="text-entity-Assignments-d5176198-717b-5ac6-9e99-fb1e6f272b77-attr-1-key" class="er entityLabel">PK</text><rect height="23" width="29.83333396911621" y="47" x="0" class="er attributeBoxEven"></rect><text transform="translate(5,58.5)" style="dominant-baseline: middle; font-size: 10.2px;" y="0" x="0" id="text-entity-Assignments-d5176198-717b-5ac6-9e99-fb1e6f272b77-attr-2-type" class="er entityLabel">int</text><rect height="23" width="71.76666641235352" y="47" x="29.83333396911621" class="er attributeBoxEven"></rect><text transform="translate(34.83333396911621,58.5)" style="dominant-baseline: middle; font-size: 10.2px;" y="0" x="0" id="text-entity-Assignments-d5176198-717b-5ac6-9e99-fb1e6f272b77-attr-2-name" class="er entityLabel">EmployeeId</text><rect height="23" width="23.600000381469727" y="47" x="101.60000038146973" class="er attributeBoxEven"></rect><text transform="translate(106.60000038146973,58.5)" style="dominant-baseline: middle; font-size: 10.2px;" y="0" x="0" id="text-entity-Assignments-d5176198-717b-5ac6-9e99-fb1e6f272b77-attr-2-key" class="er entityLabel">FK</text><rect height="23" width="29.83333396911621" y="70" x="0" class="er attributeBoxOdd"></rect><text transform="translate(5,81.5)" style="dominant-baseline: middle; font-size: 10.2px;" y="0" x="0" id="text-entity-Assignments-d5176198-717b-5ac6-9e99-fb1e6f272b77-attr-3-type" class="er entityLabel">int</text><rect height="23" width="71.76666641235352" y="70" x="29.83333396911621" class="er attributeBoxOdd"></rect><text transform="translate(34.83333396911621,81.5)" style="dominant-baseline: middle; font-size: 10.2px;" y="0" x="0" id="text-entity-Assignments-d5176198-717b-5ac6-9e99-fb1e6f272b77-attr-3-name" class="er entityLabel">ProjectId</text><rect height="23" width="23.600000381469727" y="70" x="101.60000038146973" class="er attributeBoxOdd"></rect><text transform="translate(106.60000038146973,81.5)" style="dominant-baseline: middle; font-size: 10.2px;" y="0" x="0" id="text-entity-Assignments-d5176198-717b-5ac6-9e99-fb1e6f272b77-attr-3-key" class="er entityLabel">FK</text><rect height="23" width="29.83333396911621" y="93" x="0" class="er attributeBoxEven"></rect><text transform="translate(5,104.5)" style="dominant-baseline: middle; font-size: 10.2px;" y="0" x="0" id="text-entity-Assignments-d5176198-717b-5ac6-9e99-fb1e6f272b77-attr-4-type" class="er entityLabel">int</text><rect height="23" width="71.76666641235352" y="93" x="29.83333396911621" class="er attributeBoxEven"></rect><text transform="translate(34.83333396911621,104.5)" style="dominant-baseline: middle; font-size: 10.2px;" y="0" x="0" id="text-entity-Assignments-d5176198-717b-5ac6-9e99-fb1e6f272b77-attr-4-name" class="er entityLabel">PositionId</text><rect height="23" width="23.600000381469727" y="93" x="101.60000038146973" class="er attributeBoxEven"></rect><text transform="translate(106.60000038146973,104.5)" style="dominant-baseline: middle; font-size: 10.2px;" y="0" x="0" id="text-entity-Assignments-d5176198-717b-5ac6-9e99-fb1e6f272b77-attr-4-key" class="er entityLabel">FK</text><rect height="23" width="29.83333396911621" y="116" x="0" class="er attributeBoxOdd"></rect><text transform="translate(5,127.5)" style="dominant-baseline: middle; font-size: 10.2px;" y="0" x="0" id="text-entity-Assignments-d5176198-717b-5ac6-9e99-fb1e6f272b77-attr-5-type" class="er entityLabel">int</text><rect height="23" width="71.76666641235352" y="116" x="29.83333396911621" class="er attributeBoxOdd"></rect><text transform="translate(34.83333396911621,127.5)" style="dominant-baseline: middle; font-size: 10.2px;" y="0" x="0" id="text-entity-Assignments-d5176198-717b-5ac6-9e99-fb1e6f272b77-attr-5-name" class="er entityLabel">WeeklyHours</text><rect height="23" width="23.600000381469727" y="116" x="101.60000038146973" class="er attributeBoxOdd"></rect><text transform="translate(106.60000038146973,127.5)" style="dominant-baseline: middle; font-size: 10.2px;" y="0" x="0" id="text-entity-Assignments-d5176198-717b-5ac6-9e99-fb1e6f272b77-attr-5-key" class="er entityLabel"></text><rect height="23" width="29.83333396911621" y="139" x="0" class="er attributeBoxEven"></rect><text transform="translate(5,150.5)" style="dominant-baseline: middle; font-size: 10.2px;" y="0" x="0" id="text-entity-Assignments-d5176198-717b-5ac6-9e99-fb1e6f272b77-attr-6-type" class="er entityLabel">date</text><rect height="23" width="71.76666641235352" y="139" x="29.83333396911621" class="er attributeBoxEven"></rect><text transform="translate(34.83333396911621,150.5)" style="dominant-baseline: middle; font-size: 10.2px;" y="0" x="0" id="text-entity-Assignments-d5176198-717b-5ac6-9e99-fb1e6f272b77-attr-6-name" class="er entityLabel">StartDate</text><rect height="23" width="23.600000381469727" y="139" x="101.60000038146973" class="er attributeBoxEven"></rect><text transform="translate(106.60000038146973,150.5)" style="dominant-baseline: middle; font-size: 10.2px;" y="0" x="0" id="text-entity-Assignments-d5176198-717b-5ac6-9e99-fb1e6f272b77-attr-6-key" class="er entityLabel"></text><rect height="23" width="29.83333396911621" y="162" x="0" class="er attributeBoxOdd"></rect><text transform="translate(5,173.5)" style="dominant-baseline: middle; font-size: 10.2px;" y="0" x="0" id="text-entity-Assignments-d5176198-717b-5ac6-9e99-fb1e6f272b77-attr-7-type" class="er entityLabel">date</text><rect height="23" width="71.76666641235352" y="162" x="29.83333396911621" class="er attributeBoxOdd"></rect><text transform="translate(34.83333396911621,173.5)" style="dominant-baseline: middle; font-size: 10.2px;" y="0" x="0" id="text-entity-Assignments-d5176198-717b-5ac6-9e99-fb1e6f272b77-attr-7-name" class="er entityLabel">EndDate</text><rect height="23" width="23.600000381469727" y="162" x="101.60000038146973" class="er attributeBoxOdd"></rect><text transform="translate(106.60000038146973,173.5)" style="dominant-baseline: middle; font-size: 10.2px;" y="0" x="0" id="text-entity-Assignments-d5176198-717b-5ac6-9e99-fb1e6f272b77-attr-7-key" class="er entityLabel"></text></g><g transform="translate(507.0500030517578,374 )" id="entity-PaymentPolicies-a6d7aa15-2120-5e55-b5ee-32a9e2731468"><rect height="139" width="130.30000114440918" y="0" x="0" class="er entityBox"></rect><text transform="translate(65.15000057220459,12)" style="dominant-baseline: middle; text-anchor: middle; font-size: 12px;" y="0" x="0" id="text-entity-PaymentPolicies-a6d7aa15-2120-5e55-b5ee-32a9e2731468" class="er entityLabel">PaymentPolicies</text><rect height="23" width="47.400001525878906" y="24" x="0" class="er attributeBoxOdd"></rect><text transform="translate(5,35.5)" style="dominant-baseline: middle; font-size: 10.2px;" y="0" x="0" id="text-entity-PaymentPolicies-a6d7aa15-2120-5e55-b5ee-32a9e2731468-attr-1-type" class="er entityLabel">int</text><rect height="23" width="59.29999923706055" y="24" x="47.400001525878906" class="er attributeBoxOdd"></rect><text transform="translate(52.400001525878906,35.5)" style="dominant-baseline: middle; font-size: 10.2px;" y="0" x="0" id="text-entity-PaymentPolicies-a6d7aa15-2120-5e55-b5ee-32a9e2731468-attr-1-name" class="er entityLabel">PolicyId</text><rect height="23" width="23.600000381469727" y="24" x="106.70000076293945" class="er attributeBoxOdd"></rect><text transform="translate(111.70000076293945,35.5)" style="dominant-baseline: middle; font-size: 10.2px;" y="0" x="0" id="text-entity-PaymentPolicies-a6d7aa15-2120-5e55-b5ee-32a9e2731468-attr-1-key" class="er entityLabel">PK</text><rect height="23" width="47.400001525878906" y="47" x="0" class="er attributeBoxEven"></rect><text transform="translate(5,58.5)" style="dominant-baseline: middle; font-size: 10.2px;" y="0" x="0" id="text-entity-PaymentPolicies-a6d7aa15-2120-5e55-b5ee-32a9e2731468-attr-2-type" class="er entityLabel">POLICY</text><rect height="23" width="59.29999923706055" y="47" x="47.400001525878906" class="er attributeBoxEven"></rect><text transform="translate(52.400001525878906,58.5)" style="dominant-baseline: middle; font-size: 10.2px;" y="0" x="0" id="text-entity-PaymentPolicies-a6d7aa15-2120-5e55-b5ee-32a9e2731468-attr-2-name" class="er entityLabel">PolicyType</text><rect height="23" width="23.600000381469727" y="47" x="106.70000076293945" class="er attributeBoxEven"></rect><text transform="translate(111.70000076293945,58.5)" style="dominant-baseline: middle; font-size: 10.2px;" y="0" x="0" id="text-entity-PaymentPolicies-a6d7aa15-2120-5e55-b5ee-32a9e2731468-attr-2-key" class="er entityLabel"></text><rect height="23" width="47.400001525878906" y="70" x="0" class="er attributeBoxOdd"></rect><text transform="translate(5,81.5)" style="dominant-baseline: middle; font-size: 10.2px;" y="0" x="0" id="text-entity-PaymentPolicies-a6d7aa15-2120-5e55-b5ee-32a9e2731468-attr-3-type" class="er entityLabel">boolean</text><rect height="23" width="59.29999923706055" y="70" x="47.400001525878906" class="er attributeBoxOdd"></rect><text transform="translate(52.400001525878906,81.5)" style="dominant-baseline: middle; font-size: 10.2px;" y="0" x="0" id="text-entity-PaymentPolicies-a6d7aa15-2120-5e55-b5ee-32a9e2731468-attr-3-name" class="er entityLabel">IsFixed</text><rect height="23" width="23.600000381469727" y="70" x="106.70000076293945" class="er attributeBoxOdd"></rect><text transform="translate(111.70000076293945,81.5)" style="dominant-baseline: middle; font-size: 10.2px;" y="0" x="0" id="text-entity-PaymentPolicies-a6d7aa15-2120-5e55-b5ee-32a9e2731468-attr-3-key" class="er entityLabel"></text><rect height="23" width="47.400001525878906" y="93" x="0" class="er attributeBoxEven"></rect><text transform="translate(5,104.5)" style="dominant-baseline: middle; font-size: 10.2px;" y="0" x="0" id="text-entity-PaymentPolicies-a6d7aa15-2120-5e55-b5ee-32a9e2731468-attr-4-type" class="er entityLabel">numeric</text><rect height="23" width="59.29999923706055" y="93" x="47.400001525878906" class="er attributeBoxEven"></rect><text transform="translate(52.400001525878906,104.5)" style="dominant-baseline: middle; font-size: 10.2px;" y="0" x="0" id="text-entity-PaymentPolicies-a6d7aa15-2120-5e55-b5ee-32a9e2731468-attr-4-name" class="er entityLabel">Amount</text><rect height="23" width="23.600000381469727" y="93" x="106.70000076293945" class="er attributeBoxEven"></rect><text transform="translate(111.70000076293945,104.5)" style="dominant-baseline: middle; font-size: 10.2px;" y="0" x="0" id="text-entity-PaymentPolicies-a6d7aa15-2120-5e55-b5ee-32a9e2731468-attr-4-key" class="er entityLabel"></text><rect height="23" width="47.400001525878906" y="116" x="0" class="er attributeBoxOdd"></rect><text transform="translate(5,127.5)" style="dominant-baseline: middle; font-size: 10.2px;" y="0" x="0" id="text-entity-PaymentPolicies-a6d7aa15-2120-5e55-b5ee-32a9e2731468-attr-5-type" class="er entityLabel">jsonb</text><rect height="23" width="59.29999923706055" y="116" x="47.400001525878906" class="er attributeBoxOdd"></rect><text transform="translate(52.400001525878906,127.5)" style="dominant-baseline: middle; font-size: 10.2px;" y="0" x="0" id="text-entity-PaymentPolicies-a6d7aa15-2120-5e55-b5ee-32a9e2731468-attr-5-name" class="er entityLabel">Info</text><rect height="23" width="23.600000381469727" y="116" x="106.70000076293945" class="er attributeBoxOdd"></rect><text transform="translate(111.70000076293945,127.5)" style="dominant-baseline: middle; font-size: 10.2px;" y="0" x="0" id="text-entity-PaymentPolicies-a6d7aa15-2120-5e55-b5ee-32a9e2731468-attr-5-key" class="er entityLabel"></text></g><g transform="translate(382.3166732788086,636 )" id="entity-Payments-73c13c33-799c-5da0-93d1-6b9c0c19c3de"><rect height="208" width="152.01666831970215" y="0" x="0" class="er entityBox"></rect><text transform="translate(76.00833415985107,12)" style="dominant-baseline: middle; text-anchor: middle; font-size: 12px;" y="0" x="0" id="text-entity-Payments-73c13c33-799c-5da0-93d1-6b9c0c19c3de" class="er entityLabel">Payments</text><rect height="23" width="46.266666412353516" y="24" x="0" class="er attributeBoxOdd"></rect><text transform="translate(5,35.5)" style="dominant-baseline: middle; font-size: 10.2px;" y="0" x="0" id="text-entity-Payments-73c13c33-799c-5da0-93d1-6b9c0c19c3de-attr-1-type" class="er entityLabel">int</text><rect height="23" width="82.1500015258789" y="24" x="46.266666412353516" class="er attributeBoxOdd"></rect><text transform="translate(51.266666412353516,35.5)" style="dominant-baseline: middle; font-size: 10.2px;" y="0" x="0" id="text-entity-Payments-73c13c33-799c-5da0-93d1-6b9c0c19c3de-attr-1-name" class="er entityLabel">PaymentId</text><rect height="23" width="23.600000381469727" y="24" x="128.41666793823242" class="er attributeBoxOdd"></rect><text transform="translate(133.41666793823242,35.5)" style="dominant-baseline: middle; font-size: 10.2px;" y="0" x="0" id="text-entity-Payments-73c13c33-799c-5da0-93d1-6b9c0c19c3de-attr-1-key" class="er entityLabel">PK</text><rect height="23" width="46.266666412353516" y="47" x="0" class="er attributeBoxEven"></rect><text transform="translate(5,58.5)" style="dominant-baseline: middle; font-size: 10.2px;" y="0" x="0" id="text-entity-Payments-73c13c33-799c-5da0-93d1-6b9c0c19c3de-attr-2-type" class="er entityLabel">int</text><rect height="23" width="82.1500015258789" y="47" x="46.266666412353516" class="er attributeBoxEven"></rect><text transform="translate(51.266666412353516,58.5)" style="dominant-baseline: middle; font-size: 10.2px;" y="0" x="0" id="text-entity-Payments-73c13c33-799c-5da0-93d1-6b9c0c19c3de-attr-2-name" class="er entityLabel">AssignmentId</text><rect height="23" width="23.600000381469727" y="47" x="128.41666793823242" class="er attributeBoxEven"></rect><text transform="translate(133.41666793823242,58.5)" style="dominant-baseline: middle; font-size: 10.2px;" y="0" x="0" id="text-entity-Payments-73c13c33-799c-5da0-93d1-6b9c0c19c3de-attr-2-key" class="er entityLabel">FK</text><rect height="23" width="46.266666412353516" y="70" x="0" class="er attributeBoxOdd"></rect><text transform="translate(5,81.5)" style="dominant-baseline: middle; font-size: 10.2px;" y="0" x="0" id="text-entity-Payments-73c13c33-799c-5da0-93d1-6b9c0c19c3de-attr-3-type" class="er entityLabel">int</text><rect height="23" width="82.1500015258789" y="70" x="46.266666412353516" class="er attributeBoxOdd"></rect><text transform="translate(51.266666412353516,81.5)" style="dominant-baseline: middle; font-size: 10.2px;" y="0" x="0" id="text-entity-Payments-73c13c33-799c-5da0-93d1-6b9c0c19c3de-attr-3-name" class="er entityLabel">PolicyId</text><rect height="23" width="23.600000381469727" y="70" x="128.41666793823242" class="er attributeBoxOdd"></rect><text transform="translate(133.41666793823242,81.5)" style="dominant-baseline: middle; font-size: 10.2px;" y="0" x="0" id="text-entity-Payments-73c13c33-799c-5da0-93d1-6b9c0c19c3de-attr-3-key" class="er entityLabel">FK</text><rect height="23" width="46.266666412353516" y="93" x="0" class="er attributeBoxEven"></rect><text transform="translate(5,104.5)" style="dominant-baseline: middle; font-size: 10.2px;" y="0" x="0" id="text-entity-Payments-73c13c33-799c-5da0-93d1-6b9c0c19c3de-attr-4-type" class="er entityLabel">numeric</text><rect height="23" width="82.1500015258789" y="93" x="46.266666412353516" class="er attributeBoxEven"></rect><text transform="translate(51.266666412353516,104.5)" style="dominant-baseline: middle; font-size: 10.2px;" y="0" x="0" id="text-entity-Payments-73c13c33-799c-5da0-93d1-6b9c0c19c3de-attr-4-name" class="er entityLabel">Amount</text><rect height="23" width="23.600000381469727" y="93" x="128.41666793823242" class="er attributeBoxEven"></rect><text transform="translate(133.41666793823242,104.5)" style="dominant-baseline: middle; font-size: 10.2px;" y="0" x="0" id="text-entity-Payments-73c13c33-799c-5da0-93d1-6b9c0c19c3de-attr-4-key" class="er entityLabel"></text><rect height="23" width="46.266666412353516" y="116" x="0" class="er attributeBoxOdd"></rect><text transform="translate(5,127.5)" style="dominant-baseline: middle; font-size: 10.2px;" y="0" x="0" id="text-entity-Payments-73c13c33-799c-5da0-93d1-6b9c0c19c3de-attr-5-type" class="er entityLabel">date</text><rect height="23" width="82.1500015258789" y="116" x="46.266666412353516" class="er attributeBoxOdd"></rect><text transform="translate(51.266666412353516,127.5)" style="dominant-baseline: middle; font-size: 10.2px;" y="0" x="0" id="text-entity-Payments-73c13c33-799c-5da0-93d1-6b9c0c19c3de-attr-5-name" class="er entityLabel">PeriodStart</text><rect height="23" width="23.600000381469727" y="116" x="128.41666793823242" class="er attributeBoxOdd"></rect><text transform="translate(133.41666793823242,127.5)" style="dominant-baseline: middle; font-size: 10.2px;" y="0" x="0" id="text-entity-Payments-73c13c33-799c-5da0-93d1-6b9c0c19c3de-attr-5-key" class="er entityLabel"></text><rect height="23" width="46.266666412353516" y="139" x="0" class="er attributeBoxEven"></rect><text transform="translate(5,150.5)" style="dominant-baseline: middle; font-size: 10.2px;" y="0" x="0" id="text-entity-Payments-73c13c33-799c-5da0-93d1-6b9c0c19c3de-attr-6-type" class="er entityLabel">date</text><rect height="23" width="82.1500015258789" y="139" x="46.266666412353516" class="er attributeBoxEven"></rect><text transform="translate(51.266666412353516,150.5)" style="dominant-baseline: middle; font-size: 10.2px;" y="0" x="0" id="text-entity-Payments-73c13c33-799c-5da0-93d1-6b9c0c19c3de-attr-6-name" class="er entityLabel">PeriodEnd</text><rect height="23" width="23.600000381469727" y="139" x="128.41666793823242" class="er attributeBoxEven"></rect><text transform="translate(133.41666793823242,150.5)" style="dominant-baseline: middle; font-size: 10.2px;" y="0" x="0" id="text-entity-Payments-73c13c33-799c-5da0-93d1-6b9c0c19c3de-attr-6-key" class="er entityLabel"></text><rect height="23" width="46.266666412353516" y="162" x="0" class="er attributeBoxOdd"></rect><text transform="translate(5,173.5)" style="dominant-baseline: middle; font-size: 10.2px;" y="0" x="0" id="text-entity-Payments-73c13c33-799c-5da0-93d1-6b9c0c19c3de-attr-7-type" class="er entityLabel">boolean</text><rect height="23" width="82.1500015258789" y="162" x="46.266666412353516" class="er attributeBoxOdd"></rect><text transform="translate(51.266666412353516,173.5)" style="dominant-baseline: middle; font-size: 10.2px;" y="0" x="0" id="text-entity-Payments-73c13c33-799c-5da0-93d1-6b9c0c19c3de-attr-7-name" class="er entityLabel">IsTransactioned</text><rect height="23" width="23.600000381469727" y="162" x="128.41666793823242" class="er attributeBoxOdd"></rect><text transform="translate(133.41666793823242,173.5)" style="dominant-baseline: middle; font-size: 10.2px;" y="0" x="0" id="text-entity-Payments-73c13c33-799c-5da0-93d1-6b9c0c19c3de-attr-7-key" class="er entityLabel"></text><rect height="23" width="46.266666412353516" y="185" x="0" class="er attributeBoxEven"></rect><text transform="translate(5,196.5)" style="dominant-baseline: middle; font-size: 10.2px;" y="0" x="0" id="text-entity-Payments-73c13c33-799c-5da0-93d1-6b9c0c19c3de-attr-8-type" class="er entityLabel">date</text><rect height="23" width="82.1500015258789" y="185" x="46.266666412353516" class="er attributeBoxEven"></rect><text transform="translate(51.266666412353516,196.5)" style="dominant-baseline: middle; font-size: 10.2px;" y="0" x="0" id="text-entity-Payments-73c13c33-799c-5da0-93d1-6b9c0c19c3de-attr-8-name" class="er entityLabel">PaymentDate</text><rect height="23" width="23.600000381469727" y="185" x="128.41666793823242" class="er attributeBoxEven"></rect><text transform="translate(133.41666793823242,196.5)" style="dominant-baseline: middle; font-size: 10.2px;" y="0" x="0" id="text-entity-Payments-73c13c33-799c-5da0-93d1-6b9c0c19c3de-attr-8-key" class="er entityLabel"></text></g><rect height="0" width="0" y="344.41363525390625" x="167.18475341796875" class="er relationshipLabelBox"></rect><text style="text-anchor: middle; dominant-baseline: middle; font-size: 12px;" y="344.41363525390625" x="167.18475341796875" id="rel296" class="er relationshipLabel"></text><rect height="0" width="0" y="278" x="344.45001220703125" class="er relationshipLabelBox"></rect><text style="text-anchor: middle; dominant-baseline: middle; font-size: 12px;" y="278" x="344.45001220703125" id="rel297" class="er relationshipLabel"></text><rect height="0" width="0" y="318.10235595703125" x="541.7285766601562" class="er relationshipLabelBox"></rect><text style="text-anchor: middle; dominant-baseline: middle; font-size: 12px;" y="318.10235595703125" x="541.7285766601562" id="rel298" class="er relationshipLabel"></text><rect height="0" width="0" y="590.49560546875" x="352.4964599609375" class="er relationshipLabelBox"></rect><text style="text-anchor: middle; dominant-baseline: middle; font-size: 12px;" y="590.49560546875" x="352.4964599609375" id="rel299" class="er relationshipLabel"></text><rect height="0" width="0" y="579.3405151367188" x="566.7611083984375" class="er relationshipLabelBox"></rect><text style="text-anchor: middle; dominant-baseline: middle; font-size: 12px;" y="579.3405151367188" x="566.7611083984375" id="rel300" class="er relationshipLabel"></text></g><g id="svg-pan-zoom-controls" transform="translate(829 560) scale(0.75)" class="svg-pan-zoom-control"><g id="svg-pan-zoom-zoom-in" transform="translate(30.5 5) scale(0.015)" class="svg-pan-zoom-control"><rect x="0" y="0" width="1500" height="1400" class="svg-pan-zoom-control-background"></rect><path d="M1280 576v128q0 26 -19 45t-45 19h-320v320q0 26 -19 45t-45 19h-128q-26 0 -45 -19t-19 -45v-320h-320q-26 0 -45 -19t-19 -45v-128q0 -26 19 -45t45 -19h320v-320q0 -26 19 -45t45 -19h128q26 0 45 19t19 45v320h320q26 0 45 19t19 45zM1536 1120v-960 q0 -119 -84.5 -203.5t-203.5 -84.5h-960q-119 0 -203.5 84.5t-84.5 203.5v960q0 119 84.5 203.5t203.5 84.5h960q119 0 203.5 -84.5t84.5 -203.5z" class="svg-pan-zoom-control-element"></path></g><g id="svg-pan-zoom-reset-pan-zoom" transform="translate(5 35) scale(0.4)" class="svg-pan-zoom-control"><rect x="2" y="2" width="182" height="58" class="svg-pan-zoom-control-background"></rect><path d="M33.051,20.632c-0.742-0.406-1.854-0.609-3.338-0.609h-7.969v9.281h7.769c1.543,0,2.701-0.188,3.473-0.562c1.365-0.656,2.048-1.953,2.048-3.891C35.032,22.757,34.372,21.351,33.051,20.632z" class="svg-pan-zoom-control-element"></path><path d="M170.231,0.5H15.847C7.102,0.5,0.5,5.708,0.5,11.84v38.861C0.5,56.833,7.102,61.5,15.847,61.5h154.384c8.745,0,15.269-4.667,15.269-10.798V11.84C185.5,5.708,178.976,0.5,170.231,0.5z M42.837,48.569h-7.969c-0.219-0.766-0.375-1.383-0.469-1.852c-0.188-0.969-0.289-1.961-0.305-2.977l-0.047-3.211c-0.03-2.203-0.41-3.672-1.142-4.406c-0.732-0.734-2.103-1.102-4.113-1.102h-7.05v13.547h-7.055V14.022h16.524c2.361,0.047,4.178,0.344,5.45,0.891c1.272,0.547,2.351,1.352,3.234,2.414c0.731,0.875,1.31,1.844,1.737,2.906s0.64,2.273,0.64,3.633c0,1.641-0.414,3.254-1.242,4.84s-2.195,2.707-4.102,3.363c1.594,0.641,2.723,1.551,3.387,2.73s0.996,2.98,0.996,5.402v2.32c0,1.578,0.063,2.648,0.19,3.211c0.19,0.891,0.635,1.547,1.333,1.969V48.569z M75.579,48.569h-26.18V14.022h25.336v6.117H56.454v7.336h16.781v6H56.454v8.883h19.125V48.569z M104.497,46.331c-2.44,2.086-5.887,3.129-10.34,3.129c-4.548,0-8.125-1.027-10.731-3.082s-3.909-4.879-3.909-8.473h6.891c0.224,1.578,0.662,2.758,1.316,3.539c1.196,1.422,3.246,2.133,6.15,2.133c1.739,0,3.151-0.188,4.236-0.562c2.058-0.719,3.087-2.055,3.087-4.008c0-1.141-0.504-2.023-1.512-2.648c-1.008-0.609-2.607-1.148-4.796-1.617l-3.74-0.82c-3.676-0.812-6.201-1.695-7.576-2.648c-2.328-1.594-3.492-4.086-3.492-7.477c0-3.094,1.139-5.664,3.417-7.711s5.623-3.07,10.036-3.07c3.685,0,6.829,0.965,9.431,2.895c2.602,1.93,3.966,4.73,4.093,8.402h-6.938c-0.128-2.078-1.057-3.555-2.787-4.43c-1.154-0.578-2.587-0.867-4.301-0.867c-1.907,0-3.428,0.375-4.565,1.125c-1.138,0.75-1.706,1.797-1.706,3.141c0,1.234,0.561,2.156,1.682,2.766c0.721,0.406,2.25,0.883,4.589,1.43l6.063,1.43c2.657,0.625,4.648,1.461,5.975,2.508c2.059,1.625,3.089,3.977,3.089,7.055C108.157,41.624,106.937,44.245,104.497,46.331z M139.61,48.569h-26.18V14.022h25.336v6.117h-18.281v7.336h16.781v6h-16.781v8.883h19.125V48.569z M170.337,20.14h-10.336v28.43h-7.266V20.14h-10.383v-6.117h27.984V20.14z" class="svg-pan-zoom-control-element"></path></g><g id="svg-pan-zoom-zoom-out" transform="translate(30.5 70) scale(0.015)" class="svg-pan-zoom-control"><rect x="0" y="0" width="1500" height="1400" class="svg-pan-zoom-control-background"></rect><path d="M1280 576v128q0 26 -19 45t-45 19h-896q-26 0 -45 -19t-19 -45v-128q0 -26 19 -45t45 -19h896q26 0 45 19t19 45zM1536 1120v-960q0 -119 -84.5 -203.5t-203.5 -84.5h-960q-119 0 -203.5 84.5t-84.5 203.5v960q0 119 84.5 203.5t203.5 84.5h960q119 0 203.5 -84.5 t84.5 -203.5z" class="svg-pan-zoom-control-element"></path></g></g></svg>